<?xml version="1.0" standalone="no"?>
<!DOCTYPE svg PUBLIC "-//W3C//DTD SVG 20010904//EN"
 "http://www.w3.org/TR/2001/REC-SVG-20010904/DTD/svg10.dtd">
<svg version="1.0" xmlns="http://www.w3.org/2000/svg"
 width="345.000000pt" height="430.000000pt" viewBox="0 0 345.000000 430.000000"
 preserveAspectRatio="xMidYMid meet">

<g transform="translate(0.000000,430.000000) scale(0.100000,-0.100000)"
fill="#C01023" stroke="none">
<path d="M2728 4223 c-18 -194 -164 -278 -623 -358 -259 -45 -372 -82 -488
-159 -195 -130 -300 -317 -300 -536 0 -103 10 -155 46 -243 21 -48 86 -147 98
-147 5 0 9 29 9 64 0 119 63 259 156 348 92 87 243 150 399 167 44 4 82 7 84
4 3 -2 -12 -18 -34 -35 -51 -43 -111 -138 -135 -216 -20 -65 -28 -196 -11
-206 4 -3 19 6 32 21 38 42 153 88 304 123 246 57 335 99 436 201 58 59 132
176 143 227 l7 29 -68 -33 c-37 -19 -95 -41 -128 -49 -66 -17 -145 -20 -145
-6 0 5 21 21 46 36 97 57 185 161 236 280 69 159 59 341 -25 489 l-34 58 -5
-59z"/>
<path d="M865 2839 c-194 -19 -367 -102 -511 -244 -171 -168 -254 -389 -241
-635 16 -289 151 -587 409 -897 125 -151 243 -269 478 -477 54 -48 266 -222
381 -313 57 -44 153 -120 213 -167 60 -47 115 -86 121 -86 7 0 47 28 90 62 71
57 76 64 72 92 -35 210 -45 265 -97 511 -27 130 -49 226 -127 545 -14 61 -48
182 -94 345 -11 39 -36 120 -56 182 -23 72 -33 120 -29 137 33 133 563 201
641 82 12 -17 13 -43 5 -136 -12 -146 -12 -872 0 -1090 19 -335 23 -390 31
-390 12 0 210 164 369 307 392 350 637 683 741 1005 40 126 52 226 46 387 -6
169 -32 261 -110 386 -45 72 -44 71 -128 154 -209 209 -516 293 -800 218 -161
-42 -299 -124 -403 -238 -31 -35 -56 -65 -56 -68 0 -4 62 -7 138 -8 219 -3
416 -55 464 -123 17 -24 17 -31 0 -170 l-18 -145 -18 27 c-84 126 -483 155
-826 61 -192 -52 -342 -145 -356 -220 -7 -36 -7 -36 -19 -12 -23 44 -95 249
-95 269 0 33 75 105 153 146 107 57 170 82 292 114 72 19 109 33 107 41 -2 7
-21 34 -43 60 -166 198 -458 314 -724 288z"/>
</g>
</svg>
